<svg width="448" height="460" viewBox="0 0 448 460" fill="none" xmlns="http://www.w3.org/2000/svg">
<path d="M220.329 265.579L103.104 242.824C103.104 242.824 174.534 324.072 174.534 460H220.329H266.119C266.119 324.072 337.555 242.824 337.555 242.824L220.329 265.579Z" fill="#56B300"/>
<path d="M88.4558 280.234C137.01 280.234 176.37 240.874 176.37 192.32C176.37 143.766 137.01 104.405 88.4558 104.405C39.9018 104.405 0.541016 143.766 0.541016 192.32C0.541016 240.874 39.9018 280.234 88.4558 280.234Z" fill="#9AD166"/>
<path d="M220.33 302.218C268.884 302.218 308.245 262.858 308.245 214.304C308.245 165.75 268.884 126.389 220.33 126.389C171.776 126.389 132.415 165.75 132.415 214.304C132.415 262.858 171.776 302.218 220.33 302.218Z" fill="#9AD166"/>
<path d="M148.902 175.829C197.456 175.829 236.817 136.469 236.817 87.9147C236.817 39.3608 197.456 0 148.902 0C100.348 0 60.9873 39.3608 60.9873 87.9147C60.9873 136.469 100.348 175.829 148.902 175.829Z" fill="#9AD166"/>
<path d="M359.54 280.234C408.094 280.234 447.454 240.874 447.454 192.32C447.454 143.766 408.094 104.405 359.54 104.405C310.986 104.405 271.625 143.766 271.625 192.32C271.625 240.874 310.986 280.234 359.54 280.234Z" fill="#9AD166"/>
<path d="M299.089 175.829C347.643 175.829 387.003 136.469 387.003 87.9147C387.003 39.3608 347.643 0 299.089 0C250.535 0 211.174 39.3608 211.174 87.9147C211.174 136.469 250.535 175.829 299.089 175.829Z" fill="#9AD166"/>
<circle cx="184" cy="309" r="24" fill="white"/>
<circle cx="253" cy="309" r="24" fill="white"/>
<circle cx="179" cy="317" r="12" fill="black"/>
<circle cx="249" cy="317" r="12" fill="black"/>
<path d="M257.982 132.511L258.868 130.791C261.233 124.33 264.906 119.882 269.888 117.446C275.019 115.065 279.983 114.071 284.78 114.465C289.578 114.858 294.302 114.288 298.953 112.753C303.754 111.274 307.035 108.13 308.795 103.322C310.611 98.364 310.586 94.0102 308.722 90.2605C307.007 86.5659 303.371 83.7009 297.812 81.6656C292.253 79.6302 287.791 79.0189 284.426 79.8317C281.267 80.5492 279.057 81.6995 277.796 83.2824L276.129 85.7393C273.347 89.1506 270.669 91.5779 268.096 93.0212C265.578 94.3143 262.891 94.4383 260.037 93.3931C257.182 92.3479 253.756 90.0712 249.758 86.5629C242.009 79.8067 239.069 73.8743 240.94 68.766C241.765 66.5123 243.041 64.4236 244.767 62.5C246.549 60.4261 248.015 58.748 249.166 57.4655C250.372 56.0329 252.968 53.8309 256.952 50.8597C261.087 47.9434 265.33 45.6631 269.68 44.0186C274.236 42.2789 280.034 41.3348 287.074 41.1863C294.17 40.8875 301.473 42.1134 308.986 44.8639C324.912 50.6949 336.038 60.5616 342.364 74.464C348.689 88.3664 349.377 102.079 344.426 115.601C342.061 122.061 338.658 127.631 334.219 132.31C329.985 136.894 325.637 140.158 321.177 142.103C312.256 145.993 304.555 147.945 298.076 147.958L294.057 147.764C293.122 150.318 292.257 152.217 291.461 153.459C290.816 154.756 289.59 156.011 287.783 157.224C286.181 158.341 283.89 158.78 280.911 158.541C278.136 158.207 274.571 157.242 270.214 155.647C265.856 154.052 262.463 152.383 260.034 150.642C257.755 148.956 256.419 147.018 256.028 144.83C255.636 142.642 255.538 140.817 255.732 139.355C256.132 137.798 256.882 135.516 257.982 132.511ZM242.311 172.522C244.393 170.559 247.129 169.601 250.519 169.649C254.059 169.753 259.135 171.015 265.745 173.435C272.356 175.856 276.539 179.091 278.293 183.141C280.253 187.096 279.693 193.28 276.612 201.694C274.412 207.704 272.01 211.936 269.408 214.391C266.86 216.696 263.816 217.796 260.276 217.693C256.941 217.494 252.043 216.212 245.582 213.846C239.122 211.481 234.741 208.088 232.441 203.668C230.822 200.178 231.14 195.354 233.395 189.194L234.716 185.588C235.981 182.132 237.019 179.53 237.829 177.782C238.79 176.089 240.283 174.336 242.311 172.522Z" fill="#56B300"/>
<line x1="207.886" y1="338.892" x2="221.892" y2="338.114" stroke="black" stroke-width="4" stroke-linecap="round"/>
</svg>
