<svg width="460" height="460" viewBox="0 0 460 460" fill="none" xmlns="http://www.w3.org/2000/svg">
<g clip-path="url(#clip0)">
<path d="M226.329 265.579L109.104 242.824C109.104 242.824 180.534 324.072 180.534 460H226.329H272.119C272.119 324.072 343.555 242.824 343.555 242.824L226.329 265.579Z" fill="#56B300"/>
<path d="M94.4558 280.234C143.01 280.234 182.37 240.874 182.37 192.32C182.37 143.766 143.01 104.405 94.4558 104.405C45.9018 104.405 6.54102 143.766 6.54102 192.32C6.54102 240.874 45.9018 280.234 94.4558 280.234Z" fill="#9AD166"/>
<path d="M226.33 302.218C274.884 302.218 314.245 262.858 314.245 214.304C314.245 165.75 274.884 126.389 226.33 126.389C177.776 126.389 138.415 165.75 138.415 214.304C138.415 262.858 177.776 302.218 226.33 302.218Z" fill="#9AD166"/>
<path d="M154.902 175.829C203.456 175.829 242.817 136.469 242.817 87.9147C242.817 39.3608 203.456 0 154.902 0C106.348 0 66.9873 39.3608 66.9873 87.9147C66.9873 136.469 106.348 175.829 154.902 175.829Z" fill="#9AD166"/>
<path d="M365.54 280.234C414.094 280.234 453.454 240.874 453.454 192.32C453.454 143.766 414.094 104.405 365.54 104.405C316.986 104.405 277.625 143.766 277.625 192.32C277.625 240.874 316.986 280.234 365.54 280.234Z" fill="#9AD166"/>
<path d="M305.089 175.829C353.643 175.829 393.003 136.469 393.003 87.9147C393.003 39.3608 353.643 0 305.089 0C256.535 0 217.174 39.3608 217.174 87.9147C217.174 136.469 256.535 175.829 305.089 175.829Z" fill="#9AD166"/>
<path d="M236.269 339.026C237.944 338.777 239.35 340.345 238.923 342.014C238.214 344.786 236.67 347.214 234.581 349L226 348.157L234.584 339.27C234.862 339.233 235.141 339.194 235.418 339.152L236.269 339.026Z" fill="#E3222E"/>
<path d="M221 340.5L216.658 339.026C215.028 338.777 213.66 340.345 214.075 342.014C214.765 344.786 216.267 347.214 218.298 349L232.949 347.521C234.145 345.292 234.901 342.424 235 339.27C229.185 340.081 226.807 341.388 221 340.5Z" fill="#FF3333"/>
<path d="M232.792 348L226 352C229.428 352 232.566 350.974 235 349.269C234.316 348.79 233.577 348.364 232.792 348Z" fill="#FF5F43"/>
<path d="M233 347.608C231.431 350.299 229.122 352 226.549 352C223.294 352 220.312 350.874 218 349.001C220.312 347.128 223.294 346 226.549 346C228.889 346 231.089 346.584 233 347.608Z" fill="#FF8053"/>
<circle cx="190" cy="309" r="24" fill="white"/>
<circle cx="259" cy="309" r="24" fill="white"/>
<circle cx="190" cy="310" r="12" fill="black"/>
<circle cx="259" cy="310" r="12" fill="black"/>
</g>
<defs>
<clipPath id="clip0">
<rect width="460" height="460" fill="white"/>
</clipPath>
</defs>
</svg>
