<svg width="32" height="32" viewBox="0 0 32 32" fill="none" xmlns="http://www.w3.org/2000/svg">
<path d="M15.2896 18.4751L7.13477 16.8921C7.13477 16.8921 12.1038 22.5441 12.1038 32H15.2896H18.4749C18.4749 22.5441 23.4444 16.8921 23.4444 16.8921L15.2896 18.4751Z" fill="#56B300"/>
<path d="M6.1158 19.4945C9.49347 19.4945 12.2316 16.7564 12.2316 13.3787C12.2316 10.0011 9.49347 7.26294 6.1158 7.26294C2.73814 7.26294 0 10.0011 0 13.3787C0 16.7564 2.73814 19.4945 6.1158 19.4945Z" fill="#9AD166"/>
<path d="M15.2896 21.0238C18.6673 21.0238 21.4054 18.2857 21.4054 14.908C21.4054 11.5304 18.6673 8.79224 15.2896 8.79224C11.912 8.79224 9.17383 11.5304 9.17383 14.908C9.17383 18.2857 11.912 21.0238 15.2896 21.0238Z" fill="#9AD166"/>
<path d="M10.3209 12.2316C13.6985 12.2316 16.4367 9.49347 16.4367 6.1158C16.4367 2.73814 13.6985 0 10.3209 0C6.94322 0 4.20508 2.73814 4.20508 6.1158C4.20508 9.49347 6.94322 12.2316 10.3209 12.2316Z" fill="#9AD166"/>
<path d="M24.9742 19.4945C28.3519 19.4945 31.09 16.7564 31.09 13.3787C31.09 10.0011 28.3519 7.26294 24.9742 7.26294C21.5965 7.26294 18.8584 10.0011 18.8584 13.3787C18.8584 16.7564 21.5965 19.4945 24.9742 19.4945Z" fill="#9AD166"/>
<path d="M20.7681 12.2316C24.1458 12.2316 26.884 9.49347 26.884 6.1158C26.884 2.73814 24.1458 0 20.7681 0C17.3905 0 14.6523 2.73814 14.6523 6.1158C14.6523 9.49347 17.3905 12.2316 20.7681 12.2316Z" fill="#9AD166"/>
<path d="M16.0029 23.6128C16.1213 23.5965 16.2206 23.6993 16.1905 23.8089C16.1404 23.9907 16.0313 24.15 15.8837 24.2672L15.2773 24.2119L15.8839 23.6288C15.9035 23.6264 15.9232 23.6238 15.9429 23.6211L16.0029 23.6128Z" fill="#E3222E"/>
<path d="M14.905 23.7095L14.6065 23.6128C14.4945 23.5965 14.4005 23.6993 14.429 23.8089C14.4764 23.9907 14.5797 24.15 14.7193 24.2672L15.7263 24.1702C15.8085 24.0239 15.8605 23.8357 15.8673 23.6288C15.4676 23.682 15.3041 23.7678 14.905 23.7095Z" fill="#FF3333"/>
<path d="M15.723 24.2017L15.2773 24.4641C15.5022 24.4641 15.7081 24.3968 15.8679 24.2849C15.823 24.2535 15.7745 24.2255 15.723 24.2017Z" fill="#FF5F43"/>
<path d="M15.7363 24.1758C15.6265 24.3524 15.4649 24.464 15.2848 24.464C15.0571 24.464 14.8483 24.3901 14.6865 24.2672C14.8483 24.1443 15.0571 24.0703 15.2848 24.0703C15.4486 24.0703 15.6026 24.1086 15.7363 24.1758Z" fill="#FF8053"/>
<circle cx="12.7513" cy="21.4785" r="1.67313" fill="white"/>
<circle cx="17.5403" cy="21.4785" r="1.67313" fill="white"/>
<ellipse cx="12.7508" cy="21.5771" rx="0.820161" ry="0.852968" fill="black"/>
<circle cx="17.5737" cy="21.5771" r="0.852968" fill="black"/>
</svg>
