<svg width="63" height="64" viewBox="0 0 63 64" fill="none" xmlns="http://www.w3.org/2000/svg">
<path d="M30.5792 36.9502L14.2695 33.7842C14.2695 33.7842 24.2077 45.0883 24.2077 64H30.5792H36.9499C36.9499 45.0883 46.8889 33.7842 46.8889 33.7842L30.5792 36.9502Z" fill="#56B300"/>
<path d="M12.2316 38.9891C18.9869 38.9891 24.4632 33.5128 24.4632 26.7575C24.4632 20.0022 18.9869 14.5259 12.2316 14.5259C5.47628 14.5259 0 20.0022 0 26.7575C0 33.5128 5.47628 38.9891 12.2316 38.9891Z" fill="#9AD166"/>
<path d="M30.5793 42.0477C37.3346 42.0477 42.8109 36.5714 42.8109 29.8161C42.8109 23.0608 37.3346 17.5845 30.5793 17.5845C23.8239 17.5845 18.3477 23.0608 18.3477 29.8161C18.3477 36.5714 23.8239 42.0477 30.5793 42.0477Z" fill="#9AD166"/>
<path d="M20.6418 24.4632C27.3971 24.4632 32.8734 18.9869 32.8734 12.2316C32.8734 5.47628 27.3971 0 20.6418 0C13.8864 0 8.41016 5.47628 8.41016 12.2316C8.41016 18.9869 13.8864 24.4632 20.6418 24.4632Z" fill="#9AD166"/>
<path d="M49.9484 38.9891C56.7037 38.9891 62.18 33.5128 62.18 26.7575C62.18 20.0022 56.7037 14.5259 49.9484 14.5259C43.1931 14.5259 37.7168 20.0022 37.7168 26.7575C37.7168 33.5128 43.1931 38.9891 49.9484 38.9891Z" fill="#9AD166"/>
<path d="M41.5363 24.4632C48.2916 24.4632 53.7679 18.9869 53.7679 12.2316C53.7679 5.47628 48.2916 0 41.5363 0C34.781 0 29.3047 5.47628 29.3047 12.2316C29.3047 18.9869 34.781 24.4632 41.5363 24.4632Z" fill="#9AD166"/>
<path d="M32.0059 47.2256C32.2426 47.1929 32.4412 47.3986 32.3809 47.6177C32.2807 47.9814 32.0626 48.3 31.7673 48.5344L30.5547 48.4238L31.7678 47.2577C31.807 47.2528 31.8465 47.2477 31.8857 47.2422L32.0059 47.2256Z" fill="#E3222E"/>
<path d="M29.81 47.419L29.213 47.2256C28.9889 47.1929 28.8009 47.3986 28.858 47.6177C28.9528 47.9814 29.1593 48.3 29.4386 48.5344L31.4526 48.3404C31.6171 48.0478 31.721 47.6714 31.7346 47.2577C30.9353 47.364 30.6083 47.5356 29.81 47.419Z" fill="#FF3333"/>
<path d="M31.446 48.4033L30.5547 48.9282C31.0045 48.9282 31.4163 48.7936 31.7357 48.5698C31.646 48.507 31.549 48.451 31.446 48.4033Z" fill="#FF5F43"/>
<path d="M31.4727 48.3516C31.253 48.7048 30.9298 48.928 30.5696 48.928C30.1141 48.928 29.6967 48.7802 29.373 48.5344C29.6967 48.2886 30.1141 48.1406 30.5696 48.1406C30.8973 48.1406 31.2052 48.2172 31.4727 48.3516Z" fill="#FF8053"/>
<circle cx="25.5025" cy="42.9571" r="3.34626" fill="white"/>
<circle cx="35.0806" cy="42.9571" r="3.34626" fill="white"/>
<ellipse cx="25.5017" cy="43.1542" rx="1.64032" ry="1.70594" fill="black"/>
<circle cx="35.1473" cy="43.1542" r="1.70594" fill="black"/>
</svg>
