<svg width="498" height="512" viewBox="0 0 498 512" fill="none" xmlns="http://www.w3.org/2000/svg">
<path d="M244.634 295.601L114.156 270.273C114.156 270.273 193.661 360.706 193.661 512H244.634H295.599C295.599 360.706 375.111 270.273 375.111 270.273L244.634 295.601Z" fill="#56B300"/>
<path d="M97.8529 311.913C151.896 311.913 195.706 268.103 195.706 214.06C195.706 160.017 151.896 116.207 97.8529 116.207C43.8102 116.207 0 160.017 0 214.06C0 268.103 43.8102 311.913 97.8529 311.913Z" fill="#9AD166"/>
<path d="M244.634 336.382C298.677 336.382 342.487 292.571 342.487 238.529C342.487 184.486 298.677 140.676 244.634 140.676C190.591 140.676 146.781 184.486 146.781 238.529C146.781 292.571 190.591 336.382 244.634 336.382Z" fill="#9AD166"/>
<path d="M165.134 195.706C219.177 195.706 262.987 151.895 262.987 97.8529C262.987 43.8102 219.177 0 165.134 0C111.091 0 67.2812 43.8102 67.2812 97.8529C67.2812 151.895 111.091 195.706 165.134 195.706Z" fill="#9AD166"/>
<path d="M399.587 311.913C453.63 311.913 497.44 268.103 497.44 214.06C497.44 160.017 453.63 116.207 399.587 116.207C345.545 116.207 301.734 160.017 301.734 214.06C301.734 268.103 345.545 311.913 399.587 311.913Z" fill="#9AD166"/>
<path d="M332.29 195.706C386.333 195.706 430.143 151.895 430.143 97.8529C430.143 43.8102 386.333 0 332.29 0C278.248 0 234.438 43.8102 234.438 97.8529C234.438 151.895 278.248 195.706 332.29 195.706Z" fill="#9AD166"/>
<path d="M256.047 377.805C257.941 377.543 259.53 379.189 259.047 380.942C258.246 383.851 256.501 386.4 254.139 388.275L244.438 387.391L254.142 378.061C254.456 378.022 254.772 377.981 255.086 377.937L256.047 377.805Z" fill="#E3222E"/>
<path d="M238.48 379.352L233.704 377.805C231.911 377.543 230.407 379.189 230.864 380.942C231.623 383.851 233.275 386.4 235.509 388.275L251.621 386.723C252.936 384.383 253.768 381.371 253.877 378.061C247.482 378.912 244.866 380.284 238.48 379.352Z" fill="#FF3333"/>
<path d="M251.568 387.227L244.438 391.426C248.036 391.426 251.33 390.349 253.886 388.558C253.168 388.056 252.392 387.608 251.568 387.227Z" fill="#FF5F43"/>
<path d="M251.781 386.813C250.024 389.638 247.438 391.424 244.557 391.424C240.913 391.424 237.574 390.242 234.984 388.275C237.574 386.309 240.913 385.125 244.557 385.125C247.178 385.125 249.642 385.738 251.781 386.813Z" fill="#FF8053"/>
<circle cx="204.02" cy="343.657" r="26.7701" fill="white"/>
<circle cx="280.645" cy="343.657" r="26.7701" fill="white"/>
<ellipse cx="204.013" cy="345.233" rx="13.1226" ry="13.6475" fill="black"/>
<circle cx="281.179" cy="345.233" r="13.6475" fill="black"/>
</svg>
