<svg width="125" height="128" viewBox="0 0 125 128" fill="none" xmlns="http://www.w3.org/2000/svg">
<path d="M61.1584 73.9004L28.5391 67.5684C28.5391 67.5684 48.4153 90.1765 48.4153 128H61.1584H73.8998C73.8998 90.1765 93.7777 67.5684 93.7777 67.5684L61.1584 73.9004Z" fill="#56B300"/>
<path d="M24.4632 77.9782C37.9739 77.9782 48.9264 67.0256 48.9264 53.515C48.9264 40.0043 37.9739 29.0518 24.4632 29.0518C10.9526 29.0518 0 40.0043 0 53.515C0 67.0256 10.9526 77.9782 24.4632 77.9782Z" fill="#9AD166"/>
<path d="M61.1585 84.0954C74.6692 84.0954 85.6217 73.1428 85.6217 59.6322C85.6217 46.1215 74.6692 35.1689 61.1585 35.1689C47.6479 35.1689 36.6953 46.1215 36.6953 59.6322C36.6953 73.1428 47.6479 84.0954 61.1585 84.0954Z" fill="#9AD166"/>
<path d="M41.2835 48.9264C54.7942 48.9264 65.7467 37.9739 65.7467 24.4632C65.7467 10.9526 54.7942 0 41.2835 0C27.7729 0 16.8203 10.9526 16.8203 24.4632C16.8203 37.9739 27.7729 48.9264 41.2835 48.9264Z" fill="#9AD166"/>
<path d="M99.8968 77.9782C113.407 77.9782 124.36 67.0256 124.36 53.515C124.36 40.0043 113.407 29.0518 99.8968 29.0518C86.3861 29.0518 75.4336 40.0043 75.4336 53.515C75.4336 67.0256 86.3861 77.9782 99.8968 77.9782Z" fill="#9AD166"/>
<path d="M83.0726 48.9264C96.5832 48.9264 107.536 37.9739 107.536 24.4632C107.536 10.9526 96.5832 0 83.0726 0C69.5619 0 58.6094 10.9526 58.6094 24.4632C58.6094 37.9739 69.5619 48.9264 83.0726 48.9264Z" fill="#9AD166"/>
<path d="M64.0117 94.4512C64.4852 94.3858 64.8825 94.7973 64.7619 95.2354C64.5614 95.9628 64.1252 96.6001 63.5347 97.0689L61.1094 96.8477L63.5356 94.5153C63.614 94.5056 63.6929 94.4954 63.7714 94.4843L64.0117 94.4512Z" fill="#E3222E"/>
<path d="M59.62 94.838L58.426 94.4512C57.9778 94.3858 57.6018 94.7973 57.716 95.2354C57.9057 95.9628 58.3186 96.6001 58.8772 97.0689L62.9052 96.6808C63.2341 96.0957 63.4421 95.3429 63.4692 94.5153C61.8705 94.7281 61.2165 95.0711 59.62 94.838Z" fill="#FF3333"/>
<path d="M62.892 96.8066L61.1094 97.8564C62.009 97.8564 62.8326 97.5873 63.4714 97.1396C63.292 97.0139 63.0981 96.9021 62.892 96.8066Z" fill="#FF5F43"/>
<path d="M62.9453 96.7032C62.506 97.4096 61.8596 97.856 61.1393 97.856C60.2283 97.856 59.3934 97.5604 58.7461 97.0688C59.3934 96.5772 60.2283 96.2812 61.1393 96.2812C61.7945 96.2812 62.4104 96.4344 62.9453 96.7032Z" fill="#FF8053"/>
<circle cx="51.005" cy="85.9142" r="6.69252" fill="white"/>
<circle cx="70.1613" cy="85.9142" r="6.69252" fill="white"/>
<ellipse cx="51.0033" cy="86.3084" rx="3.28065" ry="3.41187" fill="black"/>
<circle cx="70.2947" cy="86.3084" r="3.41187" fill="black"/>
</svg>
